<svg width="46" height="20" viewBox="0 0 46 20" fill="none" xmlns="http://www.w3.org/2000/svg">
<path d="M5.91992 10.8252C6.41406 9.36426 6.90104 8.0931 7.38086 7.01172C7.86068 5.92318 8.32975 4.99577 8.78809 4.22949C9.25358 3.45605 9.70117 2.82585 10.1309 2.33887C10.5677 1.84473 10.9902 1.45801 11.3984 1.17871C11.8138 0.899414 12.2113 0.706055 12.5908 0.598633C12.9775 0.491211 13.3499 0.4375 13.708 0.4375C14.1234 0.4375 14.4779 0.53776 14.7715 0.738281C15.0651 0.938802 15.305 1.19661 15.4912 1.51172C15.6846 1.82682 15.8242 2.17415 15.9102 2.55371C15.9961 2.93327 16.0391 3.30566 16.0391 3.6709C16.0391 4.10059 16.0033 4.5804 15.9316 5.11035C15.8672 5.63314 15.7848 6.18815 15.6846 6.77539C15.5843 7.36263 15.4733 7.97135 15.3516 8.60156C15.2298 9.22461 15.1188 9.84766 15.0186 10.4707C14.9183 11.0866 14.8324 11.6953 14.7607 12.2969C14.6963 12.8913 14.6641 13.4535 14.6641 13.9834C14.6641 14.1553 14.6676 14.3486 14.6748 14.5635C14.6891 14.7712 14.7142 14.986 14.75 15.208C14.7858 15.4229 14.8359 15.6341 14.9004 15.8418C14.972 16.0495 15.0651 16.2357 15.1797 16.4004C15.3014 16.5651 15.4482 16.6976 15.6201 16.7979C15.7992 16.8981 16.0104 16.9482 16.2539 16.9482C16.5977 16.9482 16.9593 16.8623 17.3389 16.6904C17.7256 16.5186 18.1016 16.3037 18.4668 16.0459C18.8392 15.7809 19.1901 15.498 19.5195 15.1973C19.8561 14.8893 20.1497 14.6064 20.4004 14.3486C20.6582 14.0837 20.8587 13.8652 21.002 13.6934C21.1523 13.5143 21.2275 13.4212 21.2275 13.4141L21.8721 15.7451C21.6429 16.0531 21.3815 16.361 21.0879 16.6689C20.7943 16.9697 20.4792 17.2562 20.1426 17.5283C19.806 17.8005 19.4479 18.0547 19.0684 18.291C18.696 18.5202 18.3128 18.7207 17.9189 18.8926C17.5251 19.0645 17.1276 19.1969 16.7266 19.29C16.3327 19.3903 15.9424 19.4404 15.5557 19.4404C15.0544 19.4404 14.6139 19.3545 14.2344 19.1826C13.8548 19.0107 13.5254 18.778 13.2461 18.4844C12.974 18.1908 12.7448 17.8506 12.5586 17.4639C12.3724 17.07 12.222 16.6546 12.1074 16.2178C12 15.7809 11.9212 15.3369 11.8711 14.8857C11.8281 14.4346 11.8066 13.9977 11.8066 13.5752C11.8066 13.0166 11.8496 12.4688 11.9355 11.9316C12.0286 11.3945 12.1396 10.8682 12.2686 10.3525C12.3975 9.82975 12.5407 9.32129 12.6982 8.82715C12.8558 8.33301 12.999 7.85319 13.1279 7.3877C13.2568 6.91504 13.3643 6.46029 13.4502 6.02344C13.5433 5.57943 13.5898 5.15332 13.5898 4.74512C13.5898 4.6377 13.5827 4.49447 13.5684 4.31543C13.554 4.13639 13.5218 3.96452 13.4717 3.7998C13.4287 3.63509 13.3571 3.49186 13.2568 3.37012C13.1566 3.24837 13.0205 3.1875 12.8486 3.1875C12.5622 3.1875 12.265 3.32357 11.957 3.5957C11.6562 3.86068 11.3447 4.22949 11.0225 4.70215C10.7074 5.1748 10.3887 5.73698 10.0664 6.38867C9.74414 7.0332 9.42188 7.73145 9.09961 8.4834C8.78451 9.22819 8.4694 10.016 8.1543 10.8467C7.84635 11.6702 7.54557 12.501 7.25195 13.3389C6.96549 14.1696 6.6862 14.9896 6.41406 15.7988C6.14193 16.6081 5.8877 17.3708 5.65137 18.0869C5.45085 18.4736 5.2181 18.7493 4.95312 18.9141C4.69531 19.0716 4.40527 19.1504 4.08301 19.1504C3.89681 19.1504 3.71419 19.111 3.53516 19.0322C3.36328 18.9535 3.20931 18.8389 3.07324 18.6885C2.93717 18.5309 2.82975 18.3411 2.75098 18.1191C2.6722 17.89 2.63281 17.6322 2.63281 17.3457C2.63281 17.0449 2.64714 16.7728 2.67578 16.5293C2.70443 16.2858 2.7474 16.0387 2.80469 15.7881C2.98372 14.9717 3.14844 14.2161 3.29883 13.5215C3.45638 12.8268 3.59961 12.1644 3.72852 11.5342C3.85742 10.904 3.97201 10.2952 4.07227 9.70801C4.17969 9.11361 4.27637 8.51921 4.3623 7.9248C4.44824 7.32324 4.52344 6.70736 4.58789 6.07715C4.65234 5.44694 4.70964 4.77376 4.75977 4.05762C4.75977 3.99316 4.75977 3.91081 4.75977 3.81055C4.75977 3.71029 4.74902 3.61719 4.72754 3.53125C4.70605 3.43815 4.66667 3.35938 4.60938 3.29492C4.55924 3.23047 4.48047 3.19824 4.37305 3.19824C4.22982 3.19824 4.05436 3.26628 3.84668 3.40234C3.64616 3.53841 3.4349 3.72819 3.21289 3.97168C2.99805 4.20801 2.77604 4.4873 2.54688 4.80957C2.32487 5.13184 2.12077 5.47917 1.93457 5.85156C1.8916 5.95898 1.82357 6.03776 1.73047 6.08789C1.63737 6.13086 1.53353 6.15234 1.41895 6.15234C1.32585 6.15234 1.22917 6.1237 1.12891 6.06641C1.02865 6.00195 0.935547 5.92676 0.849609 5.84082C0.763672 5.75488 0.692057 5.66536 0.634766 5.57227C0.577474 5.47201 0.548828 5.38249 0.548828 5.30371C0.548828 5.26074 0.563151 5.22493 0.591797 5.19629C0.828125 4.38704 1.09668 3.70312 1.39746 3.14453C1.7054 2.57878 2.02767 2.12402 2.36426 1.78027C2.70801 1.42936 3.05534 1.17513 3.40625 1.01758C3.75716 0.860026 4.10091 0.78125 4.4375 0.78125C4.94596 0.78125 5.37207 0.860026 5.71582 1.01758C6.06673 1.16797 6.34961 1.38281 6.56445 1.66211C6.7793 1.93424 6.93327 2.26367 7.02637 2.65039C7.11947 3.03711 7.16602 3.4668 7.16602 3.93945C7.16602 4.41211 7.12663 4.92057 7.04785 5.46484C6.96908 6.00911 6.86165 6.57487 6.72559 7.16211C6.58952 7.74219 6.43555 8.33659 6.26367 8.94531C6.0918 9.55404 5.91634 10.1592 5.7373 10.7607L5.91992 10.8252ZM26.416 10.9541C26.6237 11.3695 26.7777 11.8099 26.8779 12.2754C26.9854 12.7337 27.0391 13.1742 27.0391 13.5967C27.0391 14.0192 26.9925 14.4453 26.8994 14.875C26.8063 15.3047 26.6702 15.7201 26.4912 16.1211C26.3193 16.5221 26.1045 16.8981 25.8467 17.249C25.596 17.5999 25.306 17.9043 24.9766 18.1621C24.6543 18.4199 24.2998 18.624 23.9131 18.7744C23.5264 18.9248 23.1146 19 22.6777 19C22.0475 19 21.5068 18.8639 21.0557 18.5918C20.6117 18.3125 20.2464 17.9508 19.96 17.5068C19.6735 17.0628 19.4622 16.5615 19.3262 16.0029C19.1973 15.4443 19.1328 14.8786 19.1328 14.3057C19.1328 13.5179 19.251 12.7839 19.4873 12.1035C19.7236 11.416 20.0602 10.8216 20.4971 10.3203C20.9411 9.81185 21.4818 9.41439 22.1191 9.12793C22.7565 8.83431 23.4727 8.6875 24.2676 8.6875C24.9479 8.6875 25.5853 8.79492 26.1797 9.00977C26.7741 9.21745 27.3291 9.50033 27.8447 9.8584C28.3675 10.2093 28.8509 10.6139 29.2949 11.0723C29.7461 11.5306 30.165 12.0033 30.5518 12.4902L30.3477 14.0049C30.1543 13.7471 29.8929 13.4678 29.5635 13.167C29.234 12.8662 28.8831 12.5726 28.5107 12.2861C28.1455 11.9997 27.7839 11.7311 27.4258 11.4805C27.0677 11.2227 26.7598 11.0078 26.502 10.8359L26.416 10.9541ZM23.0967 16.9375C23.3402 16.9375 23.5765 16.8158 23.8057 16.5723C24.0348 16.3216 24.2354 16.0101 24.4072 15.6377C24.5791 15.2581 24.7152 14.8428 24.8154 14.3916C24.9229 13.9333 24.9766 13.4964 24.9766 13.0811C24.9766 12.7516 24.9515 12.4473 24.9014 12.168C24.8512 11.8815 24.776 11.6344 24.6758 11.4268C24.5755 11.2191 24.4466 11.0544 24.2891 10.9326C24.1315 10.8109 23.9417 10.75 23.7197 10.75C23.4261 10.75 23.1468 10.8753 22.8818 11.126C22.6169 11.3766 22.3841 11.6989 22.1836 12.0928C21.9831 12.4795 21.8255 12.9092 21.7109 13.3818C21.5964 13.8545 21.5391 14.3092 21.5391 14.7461C21.5391 15.0469 21.5677 15.3298 21.625 15.5947C21.6823 15.8597 21.7718 16.0924 21.8936 16.293C22.0153 16.4863 22.1764 16.6439 22.377 16.7656C22.5775 16.8802 22.8174 16.9375 23.0967 16.9375ZM29.209 16.7549C29.209 16.2822 29.2376 15.738 29.2949 15.1221C29.3522 14.499 29.4238 13.8688 29.5098 13.2314C29.5957 12.5869 29.6924 11.9674 29.7998 11.373C29.9072 10.7786 30.0111 10.2702 30.1113 9.84766C30.1901 9.51823 30.3405 9.24251 30.5625 9.02051C30.7917 8.7985 31.0996 8.6875 31.4863 8.6875C31.873 8.6875 32.1416 8.80566 32.292 9.04199C32.4424 9.27832 32.5176 9.59342 32.5176 9.9873C32.5176 10.0947 32.5068 10.2415 32.4854 10.4277C32.4639 10.6068 32.4352 10.8073 32.3994 11.0293C32.3708 11.2441 32.3385 11.4697 32.3027 11.7061C32.2669 11.9352 32.2311 12.1501 32.1953 12.3506C32.1667 12.5439 32.1416 12.7158 32.1201 12.8662C32.0986 13.0094 32.0879 13.1061 32.0879 13.1562H32.3027C32.3457 13.0775 32.4137 12.9521 32.5068 12.7803C32.5999 12.6012 32.7074 12.3971 32.8291 12.168C32.9508 11.9388 33.0798 11.6989 33.2158 11.4482C33.359 11.1904 33.4915 10.9469 33.6133 10.7178C33.735 10.4814 33.846 10.2738 33.9463 10.0947C34.0465 9.91569 34.1217 9.7832 34.1719 9.69727C34.401 9.31055 34.6624 9.04557 34.9561 8.90234C35.2497 8.75911 35.5755 8.6875 35.9336 8.6875C36.2917 8.6875 36.5745 8.83789 36.7822 9.13867C36.9971 9.43945 37.1045 9.85482 37.1045 10.3848C37.1045 10.4635 37.0866 10.596 37.0508 10.7822C37.0221 10.9684 36.9827 11.1904 36.9326 11.4482C36.8825 11.7061 36.8252 11.9889 36.7607 12.2969C36.7035 12.6048 36.6497 12.9199 36.5996 13.2422C36.5495 13.5645 36.5065 13.8831 36.4707 14.1982C36.4421 14.5133 36.4277 14.8034 36.4277 15.0684C36.4277 15.5124 36.4814 15.8776 36.5889 16.1641C36.7035 16.4505 36.8789 16.5938 37.1152 16.5938C37.2227 16.5938 37.3444 16.5615 37.4805 16.4971C37.6237 16.4326 37.7741 16.3503 37.9316 16.25C38.0964 16.1426 38.2611 16.0208 38.4258 15.8848C38.5977 15.7487 38.766 15.609 38.9307 15.4658C39.3102 15.1292 39.7077 14.7497 40.123 14.3271L40.3057 16.7334L39.7686 17.1416C39.4749 17.3636 39.1742 17.5856 38.8662 17.8076C38.5654 18.0296 38.2503 18.2301 37.9209 18.4092C37.5915 18.5811 37.2477 18.7243 36.8896 18.8389C36.5316 18.9463 36.1556 19 35.7617 19C35.3678 19 35.0348 18.7171 34.7627 18.1514C34.4977 17.5785 34.3652 16.7441 34.3652 15.6484C34.3652 15.2188 34.3939 14.7568 34.4512 14.2627C34.5085 13.7614 34.5801 13.2243 34.666 12.6514H34.4941L31.6797 18.2373C31.5365 18.5309 31.3753 18.7314 31.1963 18.8389C31.0173 18.9463 30.8096 19 30.5732 19C30.2796 19 30.0433 18.9391 29.8643 18.8174C29.6852 18.6885 29.5456 18.5202 29.4453 18.3125C29.3522 18.0977 29.2878 17.8577 29.252 17.5928C29.2233 17.3206 29.209 17.0413 29.209 16.7549ZM45.709 16.7119C45.4512 16.9482 45.1289 17.2025 44.7422 17.4746C44.3626 17.7396 43.9508 17.9867 43.5068 18.2158C43.0628 18.4378 42.6081 18.624 42.1426 18.7744C41.6842 18.9248 41.2474 19 40.832 19C40.4596 19 40.1445 18.9499 39.8867 18.8496C39.6361 18.7422 39.432 18.5954 39.2744 18.4092C39.1169 18.223 39.0023 17.9974 38.9307 17.7324C38.8662 17.4603 38.834 17.1631 38.834 16.8408C38.834 16.3896 38.8841 15.8669 38.9844 15.2725C39.0918 14.6709 39.2207 14.0514 39.3711 13.4141C39.5215 12.7695 39.679 12.1286 39.8438 11.4912C40.0156 10.8538 40.166 10.2666 40.2949 9.72949C40.3451 9.54329 40.4453 9.38574 40.5957 9.25684C40.7461 9.12077 40.9144 9.01335 41.1006 8.93457C41.2939 8.84863 41.4909 8.78776 41.6914 8.75195C41.8991 8.70898 42.0853 8.6875 42.25 8.6875C42.5508 8.6875 42.7549 8.74479 42.8623 8.85938C42.9697 8.9668 43.0234 9.11361 43.0234 9.2998C43.0234 9.45736 42.9876 9.68652 42.916 9.9873C42.8444 10.2809 42.7549 10.6175 42.6475 10.9971C42.54 11.3695 42.4255 11.7741 42.3037 12.2109C42.182 12.6406 42.0674 13.0739 41.96 13.5107C41.8525 13.9404 41.763 14.363 41.6914 14.7783C41.6198 15.1865 41.584 15.5553 41.584 15.8848C41.584 16.207 41.6198 16.4648 41.6914 16.6582C41.763 16.8444 41.9098 16.9375 42.1318 16.9375C42.3896 16.9375 42.6761 16.848 42.9912 16.6689C43.3063 16.4899 43.625 16.2751 43.9473 16.0244C44.2695 15.7666 44.5846 15.5016 44.8926 15.2295C45.2005 14.9574 45.4727 14.7246 45.709 14.5312V16.7119ZM40.9072 5.66895C40.9072 5.50423 40.943 5.31803 41.0146 5.11035C41.0863 4.90267 41.2008 4.70931 41.3584 4.53027C41.5231 4.34408 41.738 4.1901 42.0029 4.06836C42.2751 3.93945 42.6117 3.875 43.0127 3.875C43.2633 3.875 43.4997 3.90365 43.7217 3.96094C43.9437 4.01823 44.137 4.10775 44.3018 4.22949C44.4665 4.34408 44.5954 4.49805 44.6885 4.69141C44.7887 4.88477 44.8389 5.11393 44.8389 5.37891C44.8389 5.6224 44.7995 5.85872 44.7207 6.08789C44.6419 6.31706 44.5166 6.52116 44.3447 6.7002C44.1729 6.87923 43.9544 7.02604 43.6895 7.14062C43.4316 7.24805 43.1201 7.30176 42.7549 7.30176C42.1247 7.30176 41.6592 7.15495 41.3584 6.86133C41.0576 6.56055 40.9072 6.16309 40.9072 5.66895Z" fill="#3D6177"/>
</svg>
