<svg width="22" height="20" viewBox="0 0 22 20" fill="none" xmlns="http://www.w3.org/2000/svg">
<path d="M6.42662 19.3333C8.15177 19.391 9.87098 19.1023 11.4827 18.4843C13.0943 17.8663 14.5658 16.9315 15.81 15.7351C17.0542 14.5387 18.046 13.105 18.7268 11.5188C19.4075 9.93262 19.7633 8.22605 19.7733 6.49997C20.5639 5.52162 21.1509 4.3951 21.5 3.18664C21.526 3.09116 21.5239 2.99018 21.4939 2.89587C21.4639 2.80156 21.4073 2.71794 21.3308 2.65506C21.2544 2.59219 21.1614 2.55275 21.0631 2.5415C20.9648 2.53025 20.8653 2.54766 20.7766 2.59164C20.363 2.79073 19.8974 2.85504 19.4453 2.77551C18.9932 2.69598 18.5774 2.47661 18.2566 2.1483C17.8471 1.69981 17.3517 1.33809 16.7997 1.08457C16.2478 0.831048 15.6506 0.690888 15.0436 0.672393C14.4365 0.653898 13.8319 0.757444 13.2656 0.976896C12.6992 1.19635 12.1827 1.52724 11.7466 1.94997C11.1495 2.52824 10.7122 3.25114 10.4771 4.04842C10.242 4.84571 10.2171 5.69025 10.405 6.49997C6.49662 6.7333 3.81329 4.8783 1.66662 2.33497C1.60213 2.26194 1.51777 2.20927 1.42384 2.18338C1.32991 2.1575 1.23048 2.15953 1.13769 2.18923C1.04489 2.21892 0.962751 2.275 0.901297 2.3506C0.839843 2.4262 0.801734 2.51807 0.791623 2.61497C0.382671 4.88346 0.677674 7.22278 1.63701 9.31872C2.59635 11.4147 4.17408 13.1669 6.15829 14.34C4.82787 15.8658 2.95953 16.8187 0.94329 17C0.835271 17.0179 0.735556 17.0691 0.6581 17.1465C0.580645 17.2239 0.529325 17.3236 0.511325 17.4316C0.493324 17.5396 0.509543 17.6505 0.557711 17.7489C0.605879 17.8472 0.683586 17.928 0.779957 17.98C2.53406 18.8566 4.46573 19.3195 6.42662 19.3333Z" fill="#3D6177"/>
</svg>
